<?xml version="1.0" ?><svg id="Layer_1" style="enable-background:new 0 0 512 512;" version="1.1" viewBox="0 0 512 512" xml:space="preserve" xmlns="http://www.w3.org/2000/svg" xmlns:xlink="http://www.w3.org/1999/xlink"><style type="text/css">
	.st0{fill:#99402E;}
	.st1{fill:#B85F48;}
</style><g id="XMLID_7182_"><g id="XMLID_19763_"><g id="XMLID_2815_"><g id="XMLID_2830_"><path class="st0" d="M106.2,98.7c-18.1-7.3-36.2,10.5-33.4,28.7c3,19.2,25.4,27.5,40.4,15.9c2.5-2-1-5.5-3.5-3.5      c-12.3,9.6-30.4,1.2-32.1-14c-1.6-14.7,13-27.9,27.3-22.2C107.9,104.7,109.2,99.9,106.2,98.7L106.2,98.7z" id="XMLID_11_"/></g><g id="XMLID_2823_"><path class="st0" d="M148.3,99c-7.4-2.9-16.1-1-21,5.5c-3.5,4.7-5.5,14-0.3,18.3c7.2,5.9,20.1-1.5,26.7,5.4      c2.8,2.9,1.5,6.7-0.2,9.8c-1.9,3.4-4.1,5.3-8.1,5.1c-5.7-0.2-11.4-3-16-6c-2.7-1.8-5.2,2.6-2.5,4.3c6.2,4,17.7,9.6,25,5.7      c6.2-3.3,10.6-13.2,7.5-19.8c-3.8-8.1-15.4-6.9-22.8-7.2c-2.7-0.1-5.9,0.2-7.2-2.6c-1.2-2.6-0.3-6.3,1.1-8.7      c3.3-5.9,10.5-7.3,16.5-4.9C150,105,151.3,100.1,148.3,99L148.3,99z" id="XMLID_10_"/></g><g id="XMLID_2816_"><path class="st0" d="M197.8,100c-7.4-2.7-19.7-6.5-26.2,0.1c-5.1,5.2-5.5,14.2-0.9,19.9c2.4,2.9,5.7,4.8,9.3,5.7      c4.4,1.2,8.6,0.3,13,0.7c4.8,0.5,5.1,5.7,3.9,9.2c-1,3-3.3,4.2-6.4,4.8c-5.1,0.9-12.5,1.2-16.4-2.6c-2.3-2.3-5.8,1.3-3.5,3.5      c5.7,5.6,16.6,5.7,23.8,3.2c7.5-2.6,10.2-12,7-19c-1.8-3.9-5.3-4.3-9.1-4c-5,0.3-10.4,0.5-14.9-2.2c-5.6-3.5-6.9-12.1-1.3-16.3      c5-3.8,15.1,0,20.4,1.9C199.4,105.9,200.8,101.1,197.8,100L197.8,100z" id="XMLID_9_"/></g></g><g id="XMLID_1854_"><g id="XMLID_1998_"><g id="XMLID_2010_"><path class="st1" d="M43.6,92.5c-0.5,0-1-0.4-1-0.9c0-0.5,0.4-1,0.9-1.1c5.7-0.4,11.4-1.1,17.1-1.9       c0.6-0.1,1.1,0.3,1.1,0.8c0.1,0.5-0.3,1.1-0.8,1.1C55.2,91.4,49.5,92.1,43.6,92.5C43.7,92.5,43.7,92.5,43.6,92.5z" id="XMLID_581_"/></g><g id="XMLID_2009_"><path class="st1" d="M44.7,101c-0.5,0-0.9-0.3-1-0.8c-0.1-0.5,0.3-1.1,0.8-1.2c5.2-0.9,10.6-1.7,15.9-2.2       c0.6-0.1,1,0.3,1.1,0.9c0.1,0.5-0.3,1-0.9,1.1c-5.3,0.6-10.5,1.3-15.7,2.2C44.8,101,44.8,101,44.7,101z" id="XMLID_580_"/></g><g id="XMLID_2008_"><path class="st1" d="M47.1,108.2c-0.5,0-0.9-0.3-1-0.8c-0.1-0.5,0.2-1.1,0.7-1.2l12.6-2.9       c0.5-0.1,1.1,0.2,1.2,0.7c0.1,0.5-0.2,1.1-0.7,1.2l-12.6,2.9C47.3,108.2,47.2,108.2,47.1,108.2z" id="XMLID_579_"/></g><g id="XMLID_2007_"><path class="st1" d="M44.1,115.4c-0.5,0-0.9-0.3-1-0.8c-0.1-0.5,0.3-1.1,0.8-1.2l14-2.6       c0.5-0.1,1.1,0.3,1.2,0.8s-0.3,1.1-0.8,1.2l-14,2.6C44.2,115.4,44.2,115.4,44.1,115.4z" id="XMLID_578_"/></g><g id="XMLID_2006_"><path class="st1" d="M46.5,122.7c-0.5,0-0.9-0.3-1-0.8c-0.1-0.5,0.2-1.1,0.8-1.2l14-3c0.5-0.1,1.1,0.2,1.2,0.8       c0.1,0.5-0.2,1.1-0.8,1.2l-14,3C46.7,122.7,46.6,122.7,46.5,122.7z" id="XMLID_577_"/></g><g id="XMLID_2005_"><path class="st1" d="M45.8,131.7c-0.4,0-0.8-0.3-1-0.7c-0.2-0.5,0.1-1.1,0.6-1.3c5.5-1.8,11.1-3.4,16.7-4.6       c0.5-0.1,1.1,0.2,1.2,0.8c0.1,0.5-0.2,1.1-0.8,1.2c-5.6,1.3-11.1,2.8-16.5,4.6C46,131.7,45.9,131.7,45.8,131.7z" id="XMLID_576_"/></g><g id="XMLID_2004_"><path class="st1" d="M51.8,138.8c-0.4,0-0.9-0.3-1-0.8c-0.1-0.5,0.2-1.1,0.7-1.2l5.9-1.5       c0.5-0.1,1.1,0.2,1.2,0.7c0.1,0.5-0.2,1.1-0.7,1.2l-5.9,1.5C52,138.8,51.9,138.8,51.8,138.8z" id="XMLID_575_"/></g><g id="XMLID_2003_"><path class="st1" d="M45,148.7c-0.4,0-0.8-0.3-0.9-0.7c-0.2-0.5,0.1-1.1,0.6-1.3c7.1-2.4,14.4-4.1,21.8-5       c0.5-0.1,1,0.3,1.1,0.9s-0.3,1-0.9,1.1c-7.3,0.9-14.5,2.6-21.4,5C45.2,148.7,45.1,148.7,45,148.7z" id="XMLID_574_"/></g><g id="XMLID_2002_"><path class="st1" d="M45.2,156.4c-0.4,0-0.8-0.2-0.9-0.6c-0.2-0.5,0-1.1,0.6-1.3l15-6c0.5-0.2,1.1,0,1.3,0.6       c0.2,0.5,0,1.1-0.6,1.3l-15,6C45.5,156.3,45.3,156.4,45.2,156.4z" id="XMLID_573_"/></g><g id="XMLID_2001_"><path class="st1" d="M44.8,160.1c-0.5,0-0.9-0.3-1-0.8c-0.1-0.5,0.2-1.1,0.8-1.2c6-1.3,12-2.8,17.8-4.5       c0.5-0.2,1.1,0.1,1.2,0.7c0.2,0.5-0.1,1.1-0.7,1.2c-5.9,1.7-12,3.3-18,4.6C45,160.1,44.9,160.1,44.8,160.1z" id="XMLID_572_"/></g><g id="XMLID_2000_"><path class="st1" d="M45,166.8c-0.4,0-0.8-0.2-0.9-0.6c-0.2-0.5,0-1.1,0.6-1.3c5.8-2.3,11.9-4.3,18-5.8       c0.5-0.1,1.1,0.2,1.2,0.7c0.1,0.5-0.2,1.1-0.7,1.2c-6,1.5-12,3.5-17.7,5.8C45.2,166.8,45.1,166.8,45,166.8z" id="XMLID_571_"/></g><g id="XMLID_1999_"><path class="st1" d="M50.5,171c-0.4,0-0.8-0.3-0.9-0.7c-0.2-0.5,0.1-1.1,0.6-1.3l11.2-3.7       c0.5-0.2,1.1,0.1,1.3,0.6s-0.1,1.1-0.6,1.3l-11.2,3.7C50.7,171,50.6,171,50.5,171z" id="XMLID_570_"/></g></g><g id="XMLID_1949_"><g id="XMLID_1995_"><path class="st1" d="M400.5,461.2c-0.4,0-0.7-0.2-0.9-0.5c-0.3-0.5-0.1-1.1,0.4-1.3l11.9-6.1       c0.5-0.3,1.1-0.1,1.3,0.4c0.3,0.5,0.1,1.1-0.4,1.3l-11.9,6.1C400.8,461.2,400.7,461.2,400.5,461.2z" id="XMLID_567_"/></g><g id="XMLID_1994_"><path class="st1" d="M400.7,451.7c-0.3,0-0.6-0.2-0.8-0.4c-0.3-0.5-0.2-1.1,0.3-1.4c4.5-3,9.3-5.6,14.2-7.8       c0.5-0.2,1.1,0,1.3,0.5c0.2,0.5,0,1.1-0.5,1.3c-4.8,2.1-9.5,4.6-13.9,7.6C401.1,451.7,400.9,451.7,400.7,451.7z" id="XMLID_566_"/></g><g id="XMLID_1993_"><path class="st1" d="M405.3,441.8c-0.4,0-0.7-0.2-0.9-0.6c-0.2-0.5,0-1.1,0.5-1.3l10.5-4.8       c0.5-0.2,1.1,0,1.3,0.5c0.2,0.5,0,1.1-0.5,1.3l-10.5,4.8C405.6,441.8,405.5,441.8,405.3,441.8z" id="XMLID_565_"/></g><g id="XMLID_1992_"><path class="st1" d="M401.4,433.1c-0.4,0-0.7-0.2-0.9-0.6c-0.2-0.5,0-1.1,0.5-1.3l15.1-7.3       c0.5-0.2,1.1,0,1.3,0.5c0.2,0.5,0,1.1-0.5,1.3l-15.1,7.3C401.7,433.1,401.5,433.1,401.4,433.1z" id="XMLID_564_"/></g><g id="XMLID_1991_"><path class="st1" d="M401.1,425.9c-0.3,0-0.6-0.1-0.8-0.4c-0.3-0.4-0.2-1.1,0.2-1.4c4.6-3.5,9.6-6.7,14.7-9.5       c0.5-0.3,1.1-0.1,1.4,0.4c0.3,0.5,0.1,1.1-0.4,1.4c-5,2.8-9.9,5.9-14.4,9.4C401.5,425.9,401.3,425.9,401.1,425.9z" id="XMLID_563_"/></g><g id="XMLID_1990_"><path class="st1" d="M402.5,415.9c-0.4,0-0.7-0.2-0.9-0.5c-0.3-0.5-0.1-1.1,0.4-1.3l11.8-6.2       c0.5-0.3,1.1-0.1,1.4,0.4c0.3,0.5,0.1,1.1-0.4,1.4l-11.8,6.2C402.9,415.9,402.7,415.9,402.5,415.9z" id="XMLID_562_"/></g><g id="XMLID_1989_"><path class="st1" d="M403.6,406.5c-0.4,0-0.8-0.2-0.9-0.6c-0.2-0.5,0.1-1.1,0.6-1.3l9.6-3.7       c0.5-0.2,1.1,0.1,1.3,0.6c0.2,0.5-0.1,1.1-0.6,1.3l-9.6,3.7C403.8,406.5,403.7,406.5,403.6,406.5z" id="XMLID_561_"/></g><g id="XMLID_1988_"><path class="st1" d="M404.2,396.9c-0.4,0-0.7-0.2-0.9-0.5c-0.3-0.5-0.1-1.1,0.4-1.3l11.4-5.8       c0.5-0.3,1.1-0.1,1.3,0.4c0.3,0.5,0.1,1.1-0.4,1.3l-11.4,5.8C404.5,396.9,404.3,396.9,404.2,396.9z" id="XMLID_560_"/></g><g id="XMLID_1987_"><path class="st1" d="M401.3,384.3c-0.3,0-0.6-0.1-0.8-0.4c-0.3-0.4-0.2-1.1,0.2-1.4c4.2-3.2,8.9-5.6,14-7.2       c0.5-0.2,1.1,0.1,1.3,0.7c0.2,0.5-0.1,1.1-0.7,1.3c-4.8,1.5-9.3,3.8-13.4,6.9C401.7,384.2,401.5,384.3,401.3,384.3z" id="XMLID_559_"/></g><g id="XMLID_1986_"><path class="st1" d="M404.1,372.5c-0.3,0-0.7-0.2-0.9-0.5c-0.3-0.5-0.1-1.1,0.3-1.4l11-6.6       c0.5-0.3,1.1-0.1,1.4,0.3c0.3,0.5,0.1,1.1-0.3,1.4l-11,6.6C404.5,372.5,404.3,372.5,404.1,372.5z" id="XMLID_558_"/></g><g id="XMLID_1985_"><path class="st1" d="M402.9,360.3c-0.4,0-0.7-0.2-0.9-0.6c-0.2-0.5,0-1.1,0.5-1.3l14.1-7       c0.5-0.2,1.1,0,1.3,0.5c0.2,0.5,0,1.1-0.5,1.3l-14.1,7C403.2,360.3,403.1,360.3,402.9,360.3z" id="XMLID_557_"/></g><g id="XMLID_1984_"><path class="st1" d="M403.5,351.2c-0.3,0-0.7-0.2-0.9-0.5c-0.3-0.5-0.1-1.1,0.3-1.4c4.3-2.6,8.8-5,13.3-7.1       c0.5-0.2,1.1,0,1.3,0.5c0.2,0.5,0,1.1-0.5,1.3c-4.5,2.1-8.9,4.4-13.1,7C403.9,351.2,403.7,351.2,403.5,351.2z" id="XMLID_556_"/></g><g id="XMLID_1983_"><path class="st1" d="M402.8,339.9c-0.4,0-0.8-0.2-0.9-0.6c-0.2-0.5,0-1.1,0.6-1.3l11.8-4.8       c0.5-0.2,1.1,0,1.3,0.6s0,1.1-0.6,1.3l-11.8,4.8C403,339.9,402.9,339.9,402.8,339.9z" id="XMLID_555_"/></g><g id="XMLID_1982_"><path class="st1" d="M402.4,331.2c-0.4,0-0.7-0.2-0.9-0.5c-0.3-0.5-0.1-1.1,0.4-1.3l9.6-4.9       c0.5-0.3,1.1-0.1,1.3,0.4c0.3,0.5,0.1,1.1-0.4,1.3l-9.6,4.9C402.7,331.2,402.6,331.2,402.4,331.2z" id="XMLID_554_"/></g><g id="XMLID_1981_"><path class="st1" d="M403.5,323.2c-0.3,0-0.7-0.2-0.9-0.5c-0.3-0.5-0.1-1.1,0.4-1.4c3.6-2.1,7.6-3.5,11.7-4.4       c0.5-0.1,1.1,0.2,1.2,0.8c0.1,0.5-0.2,1.1-0.8,1.2c-3.9,0.8-7.6,2.2-11.1,4.1C403.8,323.2,403.7,323.2,403.5,323.2z" id="XMLID_553_"/></g><g id="XMLID_1980_"><path class="st1" d="M402,389.3c-0.4,0-0.8-0.3-0.9-0.7c-0.2-0.5,0.1-1.1,0.6-1.3l13.7-4.8       c0.5-0.2,1.1,0.1,1.3,0.6c0.2,0.5-0.1,1.1-0.6,1.3l-13.7,4.8C402.3,389.2,402.2,389.3,402,389.3z" id="XMLID_552_"/></g><g id="XMLID_1976_"><g id="XMLID_1978_"><path class="st1" d="M399.2,288.6c-0.5,0-1-0.4-1-1c0-0.6,0.4-1,1-1l17.7-0.2c0,0,0,0,0,0c0.5,0,1,0.4,1,1        c0,0.6-0.4,1-1,1L399.2,288.6C399.2,288.6,399.2,288.6,399.2,288.6z" id="XMLID_548_"/></g><g id="XMLID_1977_"><path class="st1" d="M400.4,298.5c-0.5,0-1-0.4-1-0.9c0-0.6,0.4-1,0.9-1.1l11.3-0.7c0.6,0,1,0.4,1.1,0.9        c0,0.6-0.4,1-0.9,1.1L400.4,298.5C400.5,298.5,400.5,298.5,400.4,298.5z" id="XMLID_547_"/></g></g><g id="XMLID_1975_"><path class="st1" d="M399.8,306.8c-2.7,0-5.3,0-8-0.1c-0.6,0-1-0.5-1-1c0-0.6,0.5-1,1-1       c6.3,0.2,12.6,0.2,18.9-0.1c0.6-0.1,1,0.4,1,1s-0.4,1-1,1C407.2,306.7,403.5,306.8,399.8,306.8z" id="XMLID_546_"/></g><g id="XMLID_1974_"><path class="st1" d="M404.5,310.8c0,0-0.1,0-0.1,0l-9.7-1.3c-0.5-0.1-0.9-0.6-0.9-1.1s0.6-0.9,1.1-0.9l9.7,1.3       c0.5,0.1,0.9,0.6,0.9,1.1C405.5,310.4,405,310.8,404.5,310.8z" id="XMLID_545_"/></g><g id="XMLID_1973_"><path class="st1" d="M401.3,318.8C401.3,318.8,401.3,318.8,401.3,318.8l-6.7-0.5c-0.6,0-1-0.5-0.9-1.1       c0-0.6,0.5-1,1.1-0.9l6.6,0.5c0.6,0,1,0.5,0.9,1.1C402.3,318.4,401.8,318.8,401.3,318.8z" id="XMLID_544_"/></g><g id="XMLID_1972_"><path class="st1" d="M403.1,326.7c-0.1,0-0.1,0-0.2,0c-3.2-0.7-6.3-1.5-9.4-2.6c-0.5-0.2-0.8-0.7-0.6-1.3       c0.2-0.5,0.7-0.8,1.3-0.6c3,1,6.1,1.9,9.1,2.5c0.5,0.1,0.9,0.6,0.8,1.2C404,326.3,403.6,326.7,403.1,326.7z" id="XMLID_543_"/></g><g id="XMLID_1971_"><path class="st1" d="M403.1,330.5C403.1,330.5,403.1,330.5,403.1,330.5l-7.4-0.1c-0.6,0-1-0.5-1-1       c0-0.5,0.5-1,1-1c0,0,0,0,0,0l7.4,0.1c0.6,0,1,0.5,1,1C404.1,330,403.6,330.5,403.1,330.5z" id="XMLID_542_"/></g><g id="XMLID_1970_"><path class="st1" d="M398.3,338.6C398.3,338.6,398.3,338.6,398.3,338.6l-9.7-0.1c-0.6,0-1-0.5-1-1       c0-0.6,0.5-1,1-1l9.7,0.1c0.6,0,1,0.5,1,1C399.3,338.1,398.9,338.6,398.3,338.6z" id="XMLID_541_"/></g><g id="XMLID_1969_"><path class="st1" d="M397.8,346.7c0,0-0.1,0-0.1,0c-3.3-0.4-6.5-1.3-9.5-2.6c-0.5-0.2-0.7-0.8-0.5-1.3       c0.2-0.5,0.8-0.7,1.3-0.5c2.9,1.2,5.9,2.1,9,2.4c0.5,0.1,0.9,0.6,0.9,1.1C398.7,346.3,398.3,346.7,397.8,346.7z" id="XMLID_540_"/></g><g id="XMLID_1968_"><path class="st1" d="M400,356.4C400,356.4,399.9,356.4,400,356.4l-10.9-0.9c-0.6,0-1-0.5-0.9-1.1       c0-0.6,0.5-1,1.1-0.9l10.8,0.9c0.6,0,1,0.5,0.9,1.1C400.9,356,400.5,356.4,400,356.4z" id="XMLID_539_"/></g><g id="XMLID_1967_"><path class="st1" d="M403.8,363.8C403.7,363.8,403.7,363.8,403.8,363.8l-13.6-0.6c-0.6,0-1-0.5-1-1s0.5-1,1-1       l13.6,0.6c0.6,0,1,0.5,1,1C404.7,363.4,404.3,363.8,403.8,363.8z" id="XMLID_538_"/></g><g id="XMLID_1966_"><path class="st1" d="M405.6,371.2C405.6,371.2,405.5,371.2,405.6,371.2l-13.6-0.6c-0.6,0-1-0.5-1-1       c0-0.5,0.5-1,1-1l13.6,0.6c0.6,0,1,0.5,1,1C406.6,370.8,406.1,371.2,405.6,371.2z" id="XMLID_537_"/></g><g id="XMLID_1965_"><path class="st1" d="M406.7,379.1c-0.1,0-0.2,0-0.3,0c-4.5-1.4-9.3-1.8-14-1.3c-0.6,0.1-1-0.3-1.1-0.9       c-0.1-0.5,0.3-1,0.9-1.1c4.9-0.6,10.1-0.1,14.8,1.3c0.5,0.2,0.8,0.7,0.7,1.2C407.5,378.8,407.2,379.1,406.7,379.1z" id="XMLID_536_"/></g><g id="XMLID_1964_"><path class="st1" d="M401.8,388.9C401.8,388.9,401.8,388.9,401.8,388.9l-12.4-0.5c-0.6,0-1-0.5-1-1       c0-0.6,0.5-1,1-1l12.4,0.5c0.6,0,1,0.5,1,1C402.8,388.5,402.4,388.9,401.8,388.9z" id="XMLID_535_"/></g><g id="XMLID_1963_"><path class="st1" d="M406.7,398.4C406.7,398.4,406.7,398.4,406.7,398.4l-15.2-0.6c-0.6,0-1-0.5-1-1       c0-0.6,0.4-1,1-1l15.1,0.6c0.6,0,1,0.5,1,1C407.7,398,407.3,398.4,406.7,398.4z" id="XMLID_534_"/></g><g id="XMLID_1962_"><path class="st1" d="M398.4,408.8c0,0-0.1,0-0.1,0l-13.5-1.4c-0.5-0.1-0.9-0.5-0.9-1.1c0.1-0.5,0.6-1,1.1-0.9       l13.5,1.4c0.5,0.1,0.9,0.5,0.9,1.1C399.4,408.5,398.9,408.8,398.4,408.8z" id="XMLID_533_"/></g><g id="XMLID_1961_"><path class="st1" d="M387.9,411.7C387.9,411.7,387.9,411.7,387.9,411.7l-12.1-0.6c-0.6,0-1-0.5-1-1       c0-0.6,0.5-1,1-1l12,0.6c0.6,0,1,0.5,1,1C388.9,411.3,388.4,411.7,387.9,411.7z" id="XMLID_532_"/></g><g id="XMLID_1960_"><path class="st1" d="M382,416.6C382,416.6,382,416.6,382,416.6l-10.9-0.9c-0.6,0-1-0.5-0.9-1.1       c0-0.6,0.5-1,1.1-0.9l10.8,0.9c0.6,0,1,0.5,0.9,1.1C383,416.2,382.5,416.6,382,416.6z" id="XMLID_531_"/></g><g id="XMLID_1959_"><path class="st1" d="M375.8,420.8C375.7,420.8,375.7,420.8,375.8,420.8l-9.3-0.1c-0.6,0-1-0.5-1-1s0.5-1,1-1       l9.3,0.1c0.6,0,1,0.5,1,1C376.7,420.4,376.3,420.8,375.8,420.8z" id="XMLID_530_"/></g><g id="XMLID_1958_"><path class="st1" d="M375.3,425.5C375.3,425.5,375.3,425.5,375.3,425.5l-15.5-0.2c-0.6,0-1-0.5-1-1       c0-0.5,0.5-1,1-1c0,0,0,0,0,0l15.5,0.2c0.6,0,1,0.5,1,1C376.3,425,375.8,425.5,375.3,425.5z" id="XMLID_529_"/></g><g id="XMLID_1957_"><path class="st1" d="M383.4,430.6C383.4,430.6,383.4,430.6,383.4,430.6l-17.8-0.3c-0.6,0-1-0.5-1-1       c0-0.6,0.4-1,1-1l17.8,0.3c0.6,0,1,0.5,1,1C384.4,430.2,383.9,430.6,383.4,430.6z" id="XMLID_528_"/></g><g id="XMLID_1956_"><path class="st1" d="M371.3,436.3c-0.5,0-1-0.4-1-1c0-0.6,0.4-1,1-1l14-0.2c0.5,0,1,0.4,1,1s-0.4,1-1,1       L371.3,436.3C371.3,436.3,371.3,436.3,371.3,436.3z" id="XMLID_527_"/></g><g id="XMLID_1955_"><path class="st1" d="M384.3,442.7C384.3,442.7,384.3,442.7,384.3,442.7l-7-0.5c-0.6,0-1-0.5-0.9-1.1       c0-0.5,0.5-1,1.1-0.9l7,0.5c0.6,0,1,0.5,0.9,1.1C385.3,442.3,384.9,442.7,384.3,442.7z" id="XMLID_526_"/></g><g id="XMLID_1954_"><path class="st1" d="M388.5,448.5C388.5,448.5,388.5,448.5,388.5,448.5l-8.5-0.1c-0.6,0-1-0.5-1-1       c0-0.5,0.5-1,1-1c0,0,0,0,0,0l8.5,0.1c0.6,0,1,0.5,1,1C389.5,448.1,389.1,448.5,388.5,448.5z" id="XMLID_525_"/></g><g id="XMLID_1953_"><path class="st1" d="M384.1,455.8c-0.5,0-1-0.4-1-1c0-0.6,0.4-1,1-1l14.4-0.6c0.5,0,1,0.4,1,1c0,0.6-0.4,1-1,1       L384.1,455.8C384.2,455.8,384.2,455.8,384.1,455.8z" id="XMLID_524_"/></g><g id="XMLID_1952_"><path class="st1" d="M394.9,462.2C394.9,462.2,394.9,462.2,394.9,462.2l-5.5-0.5c-0.6,0-1-0.5-0.9-1.1       c0-0.5,0.5-1,1.1-0.9l5.4,0.5c0.5,0,1,0.5,0.9,1.1C395.9,461.8,395.4,462.2,394.9,462.2z" id="XMLID_523_"/></g><g id="XMLID_1951_"><path class="st1" d="M407.5,476.4C407.5,476.4,407.5,476.4,407.5,476.4c-0.6,0-1-0.3-1.2-0.8       c-0.3-0.7-0.1-1.4,0.5-2.2l28.9-34.3c0.4-0.4,1-0.5,1.4-0.1c0.4,0.4,0.5,1,0.1,1.4l-28.5,34c0,0,0,0,0,0       c0.3,0.4,0.3,0.9,0.1,1.3C408.6,476.1,408.1,476.4,407.5,476.4z" id="XMLID_522_"/></g><g id="XMLID_1950_"><path class="st1" d="M410.1,455.8c-0.2,0-0.5-0.1-0.7-0.3c-0.4-0.4-0.4-1-0.1-1.4l9.1-9.9       c0.4-0.4,1-0.4,1.4-0.1c0.4,0.4,0.4,1,0.1,1.4l-9.1,9.9C410.7,455.7,410.4,455.8,410.1,455.8z" id="XMLID_521_"/></g></g><g id="XMLID_1948_"><path class="st1" d="M77.5,456.8c-0.4,0-0.8-0.3-1-0.7c-0.2-0.5,0.1-1.1,0.7-1.3c6.8-2.1,14.2-2.9,21.4-2.1      c0.5,0.1,0.9,0.6,0.9,1.1c-0.1,0.5-0.6,0.9-1.1,0.9c-6.9-0.7-14-0.1-20.5,2C77.7,456.8,77.6,456.8,77.5,456.8z" id="XMLID_520_"/></g><g id="XMLID_1947_"><path class="st1" d="M86.5,446.8c-2.7,0-5.4-0.4-8-1.3c-0.5-0.2-0.8-0.7-0.6-1.3c0.2-0.5,0.7-0.8,1.3-0.6      c4.9,1.7,10.2,1.6,15.1-0.1c0.5-0.2,1.1,0.1,1.3,0.6c0.2,0.5-0.1,1.1-0.6,1.3C92.1,446.3,89.3,446.8,86.5,446.8z" id="XMLID_519_"/></g><g id="XMLID_1946_"><path class="st1" d="M78.7,438.8c-0.5,0-0.9-0.3-1-0.8c-0.1-0.5,0.2-1.1,0.8-1.2l11.6-2.4      c0.5-0.1,1.1,0.2,1.2,0.8s-0.2,1.1-0.8,1.2l-11.6,2.4C78.8,438.8,78.8,438.8,78.7,438.8z" id="XMLID_518_"/></g><g id="XMLID_1945_"><path class="st1" d="M75.8,428.8c-0.5,0-0.9-0.3-1-0.8c-0.1-0.5,0.2-1.1,0.8-1.2c4.9-1.1,9.8-2.6,14.5-4.3      c0.5-0.2,1.1,0.1,1.3,0.6c0.2,0.5-0.1,1.1-0.6,1.3c-4.8,1.8-9.8,3.3-14.8,4.4C75.9,428.8,75.8,428.8,75.8,428.8z" id="XMLID_517_"/></g><g id="XMLID_1944_"><path class="st1" d="M76.9,419.6c-0.5,0-0.9-0.3-1-0.8c-0.1-0.5,0.2-1.1,0.7-1.2c4.2-1,8.6-1.6,13-1.8      c0.5-0.1,1,0.4,1,1c0,0.6-0.4,1-1,1c-4.2,0.2-8.5,0.8-12.6,1.8C77.1,419.6,77,419.6,76.9,419.6z" id="XMLID_516_"/></g><g id="XMLID_1943_"><path class="st1" d="M75.2,408.5c-0.5,0-0.9-0.3-1-0.8c-0.1-0.5,0.2-1.1,0.7-1.2l16.9-4.1      c0.5-0.1,1.1,0.2,1.2,0.7c0.1,0.5-0.2,1.1-0.7,1.2l-16.9,4.1C75.3,408.5,75.3,408.5,75.2,408.5z" id="XMLID_515_"/></g><g id="XMLID_1942_"><path class="st1" d="M78.1,400.9c-0.5,0-1-0.4-1-0.9c0-0.6,0.4-1,0.9-1.1l9.3-0.6c0.6,0,1,0.4,1.1,0.9      c0,0.6-0.4,1-0.9,1.1L78.1,400.9C78.1,400.9,78.1,400.9,78.1,400.9z" id="XMLID_514_"/></g><g id="XMLID_1941_"><path class="st1" d="M79.8,392.2c-0.5,0-0.9-0.3-1-0.8c-0.1-0.5,0.3-1.1,0.8-1.2l6.4-1.2      c0.5-0.1,1.1,0.3,1.2,0.8c0.1,0.5-0.3,1.1-0.8,1.2l-6.4,1.2C80,392.2,79.9,392.2,79.8,392.2z" id="XMLID_513_"/></g><g id="XMLID_1940_"><path class="st1" d="M76.9,386.9c-0.4,0-0.9-0.3-1-0.8c-0.1-0.5,0.2-1.1,0.7-1.2l11.6-2.9      c0.5-0.1,1.1,0.2,1.2,0.7c0.1,0.5-0.2,1.1-0.7,1.2l-11.6,2.9C77.1,386.9,77,386.9,76.9,386.9z" id="XMLID_512_"/></g><g id="XMLID_1939_"><path class="st1" d="M74.6,377c-0.5,0-0.9-0.3-1-0.8c-0.1-0.5,0.3-1.1,0.8-1.2c4.5-0.8,9-1.8,13.4-3.1      c0.5-0.2,1.1,0.2,1.2,0.7c0.2,0.5-0.2,1.1-0.7,1.2c-4.4,1.3-9,2.3-13.6,3.1C74.7,377,74.7,377,74.6,377z" id="XMLID_511_"/></g><g id="XMLID_1938_"><path class="st1" d="M76.4,367.2c-0.4,0-0.9-0.3-1-0.7c-0.1-0.5,0.2-1.1,0.7-1.2l15.7-4.1      c0.5-0.1,1.1,0.2,1.2,0.7c0.1,0.5-0.2,1.1-0.7,1.2l-15.7,4.1C76.5,367.2,76.4,367.2,76.4,367.2z" id="XMLID_510_"/></g><g id="XMLID_1937_"><path class="st1" d="M81.2,356.7c-0.1,0-0.1,0-0.2,0c-0.6,0-1-0.5-1-1c0-0.6,0.4-1,1-1c0,0,0.1,0,0.2,0      c3.2,0,6.4-0.3,9.6-0.8c0.5-0.1,1.1,0.3,1.2,0.8c0.1,0.5-0.3,1.1-0.8,1.2C87.9,356.4,84.5,356.7,81.2,356.7z" id="XMLID_509_"/></g><g id="XMLID_1936_"><path class="st1" d="M80.4,346.8c-0.5,0-0.9-0.4-1-0.9c-0.1-0.5,0.3-1,0.9-1.1c4.2-0.4,8.2-1.4,12.1-3      c0.5-0.2,1.1,0,1.3,0.5c0.2,0.5,0,1.1-0.5,1.3C89.1,345.3,84.9,346.3,80.4,346.8C80.5,346.8,80.4,346.8,80.4,346.8z" id="XMLID_508_"/></g><g id="XMLID_1935_"><path class="st1" d="M81.6,337c-0.5,0-0.9-0.3-1-0.8c-0.1-0.5,0.3-1.1,0.8-1.2l9.3-1.7c0.6-0.1,1.1,0.3,1.2,0.8      c0.1,0.5-0.3,1.1-0.8,1.2l-9.3,1.7C81.7,336.9,81.6,337,81.6,337z" id="XMLID_507_"/></g><g id="XMLID_1934_"><path class="st1" d="M79.8,328.2c-0.5,0-1-0.4-1-0.9c0-0.6,0.4-1,0.9-1.1c2.9-0.2,5.8-0.7,8.6-1.5      c0.5-0.2,1.1,0.2,1.2,0.7s-0.2,1.1-0.7,1.2C86,327.5,82.9,328,79.8,328.2C79.9,328.2,79.9,328.2,79.8,328.2z" id="XMLID_506_"/></g><g id="XMLID_1933_"><path class="st1" d="M78.7,319.5c-0.5,0-0.9-0.3-1-0.8c-0.1-0.5,0.2-1.1,0.8-1.2l14.5-2.9      c0.5-0.1,1.1,0.2,1.2,0.8c0.1,0.5-0.2,1.1-0.8,1.2l-14.5,2.9C78.8,319.5,78.7,319.5,78.7,319.5z" id="XMLID_505_"/></g><g id="XMLID_1932_"><path class="st1" d="M77.4,311.2c-0.4,0-0.8-0.2-0.9-0.6c-0.2-0.5,0-1.1,0.6-1.3c4.2-1.7,8.8-2.5,13.2-2.4      c0.6,0,1,0.5,1,1c0,0.6-0.5,1-1,1c-4.2-0.1-8.5,0.7-12.5,2.3C77.7,311.2,77.6,311.2,77.4,311.2z" id="XMLID_504_"/></g><g id="XMLID_1931_"><path class="st1" d="M77.5,298.6c-0.5,0-0.9-0.3-1-0.8c-0.1-0.5,0.2-1.1,0.8-1.2l13.4-2.7      c0.5-0.1,1.1,0.2,1.2,0.8c0.1,0.5-0.2,1.1-0.8,1.2l-13.4,2.7C77.7,298.6,77.6,298.6,77.5,298.6z" id="XMLID_503_"/></g><g id="XMLID_1930_"><path class="st1" d="M81,284.1c-0.5,0-0.9-0.4-1-0.9c-0.1-0.5,0.3-1.1,0.8-1.1l11.6-1.7      c0.5-0.1,1.1,0.3,1.1,0.8c0.1,0.5-0.3,1.1-0.8,1.1l-11.6,1.7C81.1,284.1,81.1,284.1,81,284.1z" id="XMLID_502_"/></g><g id="XMLID_1929_"><path class="st1" d="M78.7,276.5c-0.4,0-0.9-0.3-1-0.8c-0.1-0.5,0.2-1.1,0.7-1.2l15.7-4      c0.5-0.1,1.1,0.2,1.2,0.7c0.1,0.5-0.2,1.1-0.7,1.2l-15.7,4C78.9,276.5,78.8,276.5,78.7,276.5z" id="XMLID_501_"/></g><g id="XMLID_1928_"><path class="st1" d="M82.7,266c-0.5,0-0.9-0.3-1-0.8c-0.1-0.5,0.3-1.1,0.8-1.2c3.7-0.7,7.4-1.5,11-2.6      c0.5-0.2,1.1,0.1,1.2,0.7c0.2,0.5-0.1,1.1-0.7,1.2c-3.7,1.1-7.5,2-11.2,2.7C82.9,266,82.8,266,82.7,266z" id="XMLID_500_"/></g><g id="XMLID_1927_"><path class="st1" d="M82.1,258.4c-0.2,0-0.4,0-0.5,0c-0.6,0-1-0.5-1-1s0.5-1,1-1c3.5,0.1,6.9-0.5,10.2-1.5      c0.5-0.2,1.1,0.1,1.3,0.6s-0.1,1.1-0.6,1.3C89.1,257.8,85.6,258.4,82.1,258.4z" id="XMLID_499_"/></g><g id="XMLID_1926_"><path class="st1" d="M79.8,249.7c-0.5,0-1-0.4-1-0.9c0-0.6,0.4-1,0.9-1.1c3.9-0.2,7.8-0.9,11.5-1.9      c0.5-0.1,1.1,0.2,1.2,0.7c0.1,0.5-0.2,1.1-0.7,1.2C87.9,248.8,83.9,249.4,79.8,249.7C79.9,249.7,79.9,249.7,79.8,249.7z" id="XMLID_498_"/></g><g id="XMLID_1925_"><path class="st1" d="M81.9,238c-0.3,0-0.6,0-0.9,0c-0.6,0-1-0.5-1-1c0-0.5,0.5-1,1-1c0,0,0,0,0,0      c4.4,0.1,8.8-0.4,13.1-1.5c0.5-0.1,1.1,0.2,1.2,0.7s-0.2,1.1-0.7,1.2C90.5,237.5,86.2,238,81.9,238z" id="XMLID_497_"/></g><g id="XMLID_1924_"><path class="st1" d="M78.7,228.7c-0.5,0-0.9-0.4-1-0.9c0-0.5,0.4-1,0.9-1.1c5.2-0.5,10.5-1.2,15.7-2      c0.6-0.1,1.1,0.3,1.2,0.8c0.1,0.5-0.3,1.1-0.8,1.2C89.4,227.6,84,228.3,78.7,228.7C78.7,228.7,78.7,228.7,78.7,228.7z" id="XMLID_496_"/></g><g id="XMLID_1923_"><path class="st1" d="M81.6,219.6c-0.5,0-0.9-0.3-1-0.8c-0.1-0.5,0.2-1.1,0.8-1.2l9.9-2.3      c0.5-0.1,1.1,0.2,1.2,0.8s-0.2,1.1-0.8,1.2l-9.9,2.3C81.8,219.6,81.7,219.6,81.6,219.6z" id="XMLID_495_"/></g><g id="XMLID_1922_"><path class="st1" d="M83.5,207.8c-1,0-2.1,0-3.1-0.1c-0.6,0-1-0.5-0.9-1.1c0-0.6,0.5-1,1.1-0.9      c5.4,0.3,10.8-0.2,16.1-1.7c0.5-0.1,1.1,0.2,1.2,0.7s-0.2,1.1-0.7,1.2C92.6,207.2,88.1,207.8,83.5,207.8z" id="XMLID_494_"/></g><g id="XMLID_1921_"><path class="st1" d="M82.7,199.1c-0.4,0-0.8-0.3-1-0.7c-0.1-0.5,0.2-1.1,0.7-1.2l10.5-2.9      c0.5-0.1,1.1,0.2,1.2,0.7c0.1,0.5-0.2,1.1-0.7,1.2L83,199.1C82.9,199.1,82.8,199.1,82.7,199.1z" id="XMLID_493_"/></g><g id="XMLID_1920_"><path class="st1" d="M83.3,188c-0.5,0-0.9-0.3-1-0.8c-0.1-0.5,0.3-1.1,0.8-1.1c3.5-0.6,7-1.5,10.3-2.7      c0.5-0.2,1.1,0.1,1.3,0.6c0.2,0.5-0.1,1.1-0.6,1.3c-3.5,1.3-7.1,2.3-10.7,2.8C83.4,188,83.4,188,83.3,188z" id="XMLID_492_"/></g><g id="XMLID_1919_"><path class="st1" d="M84.5,181.1c-0.5,0-0.9-0.4-1-0.9c-0.1-0.5,0.3-1,0.9-1.1l9.3-1.2c0.5-0.1,1,0.3,1.1,0.9      s-0.3,1-0.9,1.1l-9.3,1.2C84.6,181.1,84.5,181.1,84.5,181.1z" id="XMLID_491_"/></g><g id="XMLID_1918_"><path class="st1" d="M84.2,67.8c-1.7,0-3.4,0-5-0.1c-0.6,0-1-0.5-0.9-1.1c0-0.6,0.5-1,1.1-0.9      c5,0.3,10,0.1,15-0.4c0.5-0.1,1,0.3,1.1,0.9s-0.3,1-0.9,1.1C91.1,67.6,87.7,67.8,84.2,67.8z" id="XMLID_490_"/></g><g id="XMLID_1917_"><path class="st1" d="M81,58.4c-0.5,0-1-0.4-1-0.9c0-0.6,0.4-1,0.9-1.1l13.4-1c0.6-0.1,1,0.4,1.1,0.9      c0,0.6-0.4,1-0.9,1.1L81,58.4C81.1,58.4,81,58.4,81,58.4z" id="XMLID_489_"/></g><g id="XMLID_1916_"><path class="st1" d="M78.1,50.3c-0.5,0-0.9-0.4-1-0.9c-0.1-0.5,0.3-1.1,0.8-1.1l11.6-1.7      c0.6-0.1,1.1,0.3,1.1,0.8c0.1,0.5-0.3,1.1-0.8,1.1l-11.6,1.7C78.2,50.3,78.2,50.3,78.1,50.3z" id="XMLID_488_"/></g><g id="XMLID_1915_"><path class="st1" d="M78.1,39.2c-0.5,0-0.9-0.3-1-0.8c-0.1-0.5,0.3-1.1,0.8-1.2l10.5-1.7      c0.5-0.1,1.1,0.3,1.2,0.8c0.1,0.5-0.3,1.1-0.8,1.2l-10.5,1.7C78.2,39.2,78.2,39.2,78.1,39.2z" id="XMLID_487_"/></g><g id="XMLID_1914_"><path class="st1" d="M79.3,30.4c-0.5,0-0.9-0.4-1-0.8c-0.1-0.5,0.3-1.1,0.8-1.1l11.6-1.8      c0.5-0.1,1.1,0.3,1.1,0.8s-0.3,1.1-0.8,1.1l-11.6,1.8C79.4,30.4,79.3,30.4,79.3,30.4z" id="XMLID_486_"/></g><g id="XMLID_1913_"><path class="st1" d="M76.9,18.8c-0.5,0-1-0.4-1-1c0-0.6,0.4-1,1-1c3.7-0.1,7.4-0.3,11-0.8      c0.6-0.1,1,0.3,1.1,0.9c0.1,0.5-0.3,1-0.9,1.1C84.5,18.5,80.7,18.7,76.9,18.8C76.9,18.8,76.9,18.8,76.9,18.8z" id="XMLID_485_"/></g><g id="XMLID_1912_"><path class="st1" d="M93,461.1c-0.2,0-0.4,0-0.5-0.2c-6.3-3.9-12.3-8.4-17.8-13.3c-0.4-0.4-0.5-1-0.1-1.4      c0.4-0.4,1-0.5,1.4-0.1c5.5,4.9,11.4,9.3,17.6,13.1c0.5,0.3,0.6,0.9,0.3,1.4C93.7,461,93.4,461.1,93,461.1z" id="XMLID_484_"/></g><g id="XMLID_1911_"><path class="st1" d="M97.3,450.4c-0.2,0-0.4,0-0.5-0.2l-20.8-13c-0.5-0.3-0.6-0.9-0.3-1.4      c0.3-0.5,0.9-0.6,1.4-0.3l20.8,13c0.5,0.3,0.6,0.9,0.3,1.4C97.9,450.2,97.6,450.4,97.3,450.4z" id="XMLID_483_"/></g><g id="XMLID_1910_"><path class="st1" d="M98.3,434.3c-0.2,0-0.4,0-0.5-0.2c-6.9-4.4-14.1-8.6-21.2-12.6c-0.5-0.3-0.7-0.9-0.4-1.4      c0.3-0.5,0.9-0.7,1.4-0.4c7.2,4,14.4,8.3,21.3,12.7c0.5,0.3,0.6,0.9,0.3,1.4C98.9,434.2,98.6,434.3,98.3,434.3z" id="XMLID_482_"/></g><g id="XMLID_1909_"><path class="st1" d="M90.9,419.5c-0.1,0-0.2,0-0.3,0c-5.1-1.6-9.7-4.4-13.3-8.3c-0.4-0.4-0.4-1,0-1.4      c0.4-0.4,1-0.4,1.4,0c3.4,3.6,7.7,6.3,12.5,7.8c0.5,0.2,0.8,0.7,0.7,1.3C91.7,419.2,91.3,419.5,90.9,419.5z" id="XMLID_481_"/></g><g id="XMLID_1908_"><path class="st1" d="M88.5,406.8c-0.2,0-0.4-0.1-0.6-0.2c-5.4-3.9-11-7.6-16.7-11.1c-0.5-0.3-0.6-0.9-0.3-1.4      s0.9-0.6,1.4-0.3c5.7,3.5,11.4,7.3,16.9,11.2c0.4,0.3,0.5,0.9,0.2,1.4C89.1,406.6,88.8,406.8,88.5,406.8z" id="XMLID_480_"/></g><g id="XMLID_1907_"><path class="st1" d="M90.9,393.4c-0.2,0-0.4-0.1-0.6-0.2l-15.6-11.1c-0.5-0.3-0.6-0.9-0.2-1.4      c0.3-0.5,0.9-0.6,1.4-0.2l15.6,11.1c0.5,0.3,0.6,0.9,0.2,1.4C91.5,393.2,91.2,393.4,90.9,393.4z" id="XMLID_479_"/></g><g id="XMLID_1906_"><path class="st1" d="M89.2,378.1c-0.2,0-0.4,0-0.5-0.2l-11.1-6.9c-0.5-0.3-0.6-0.9-0.3-1.4      c0.3-0.5,0.9-0.6,1.4-0.3l11.1,6.9c0.5,0.3,0.6,0.9,0.3,1.4C89.9,378,89.5,378.1,89.2,378.1z" id="XMLID_478_"/></g><g id="XMLID_1905_"><path class="st1" d="M94.4,371.2c-0.2,0-0.4-0.1-0.5-0.2l-11.6-7.6c-0.5-0.3-0.6-0.9-0.3-1.4      c0.3-0.5,0.9-0.6,1.4-0.3l11.6,7.6c0.5,0.3,0.6,0.9,0.3,1.4C95,371.1,94.7,371.2,94.4,371.2z" id="XMLID_477_"/></g><g id="XMLID_1904_"><path class="st1" d="M93.2,362c-0.2,0-0.5-0.1-0.6-0.2c-3.6-3-7.4-5.7-11.5-8.1c-0.5-0.3-0.6-0.9-0.4-1.4      c0.3-0.5,0.9-0.6,1.4-0.4c4.1,2.4,8.1,5.2,11.7,8.3c0.4,0.4,0.5,1,0.1,1.4C93.7,361.9,93.5,362,93.2,362z" id="XMLID_476_"/></g><g id="XMLID_1903_"><path class="st1" d="M90.8,346.9c-0.2,0-0.5-0.1-0.7-0.3c-3.4-3.1-7.2-5.6-11.3-7.6c-0.5-0.2-0.7-0.8-0.5-1.3      c0.2-0.5,0.8-0.7,1.3-0.5c4.3,2.1,8.2,4.7,11.7,7.9c0.4,0.4,0.4,1,0.1,1.4C91.4,346.8,91.1,346.9,90.8,346.9z" id="XMLID_475_"/></g><g id="XMLID_1902_"><path class="st1" d="M90.3,337c-0.2,0-0.4-0.1-0.6-0.2c-4.8-3.2-9.8-6.2-15-8.7c-0.5-0.2-0.7-0.8-0.5-1.3      c0.2-0.5,0.8-0.7,1.3-0.5c5.2,2.6,10.4,5.6,15.2,8.9c0.5,0.3,0.6,0.9,0.3,1.4C90.9,336.8,90.6,337,90.3,337z" id="XMLID_474_"/></g><g id="XMLID_1901_"><path class="st1" d="M90.3,321.8c-0.2,0-0.4-0.1-0.5-0.2l-13.4-8.7c-0.5-0.3-0.6-0.9-0.3-1.4      c0.3-0.5,0.9-0.6,1.4-0.3l13.4,8.7c0.5,0.3,0.6,0.9,0.3,1.4C91,321.7,90.6,321.8,90.3,321.8z" id="XMLID_473_"/></g><g id="XMLID_1900_"><path class="st1" d="M93.2,311.9c-0.1,0-0.3,0-0.4-0.1l-15.7-7.6c-0.5-0.2-0.7-0.8-0.5-1.3      c0.2-0.5,0.8-0.7,1.3-0.5l15.7,7.6c0.5,0.2,0.7,0.8,0.5,1.3C94,311.7,93.6,311.9,93.2,311.9z" id="XMLID_472_"/></g><g id="XMLID_1899_"><path class="st1" d="M93.7,295.4c-0.1,0-0.2,0-0.3-0.1c-5.3-2-10.6-4.3-15.6-6.9c-0.5-0.3-0.7-0.9-0.4-1.3      c0.3-0.5,0.9-0.7,1.3-0.4c5,2.6,10.1,4.9,15.4,6.8c0.5,0.2,0.8,0.8,0.6,1.3C94.5,295.1,94.1,295.4,93.7,295.4z" id="XMLID_471_"/></g><g id="XMLID_1898_"><path class="st1" d="M90.3,280.6c-0.1,0-0.2,0-0.3-0.1c-5-1.8-9.6-4.4-13.6-7.9c-0.4-0.4-0.5-1-0.1-1.4      c0.4-0.4,1-0.5,1.4-0.1c3.9,3.3,8.2,5.8,13,7.5c0.5,0.2,0.8,0.8,0.6,1.3C91.1,280.4,90.7,280.6,90.3,280.6z" id="XMLID_470_"/></g><g id="XMLID_1897_"><path class="st1" d="M92.5,271.9c-0.2,0-0.5-0.1-0.7-0.3c-4.1-3.7-8.7-6.8-13.6-9.3c-0.5-0.2-0.7-0.8-0.5-1.3      c0.2-0.5,0.8-0.7,1.3-0.5c5.1,2.5,9.9,5.7,14.1,9.6c0.4,0.4,0.4,1,0.1,1.4C93.1,271.8,92.8,271.9,92.5,271.9z" id="XMLID_469_"/></g><g id="XMLID_1896_"><path class="st1" d="M93.2,260.2c-0.2,0-0.3,0-0.5-0.1l-11.6-6.4c-0.5-0.3-0.7-0.9-0.4-1.4      c0.3-0.5,0.9-0.7,1.4-0.4l11.6,6.4c0.5,0.3,0.7,0.9,0.4,1.4C93.9,260,93.6,260.2,93.2,260.2z" id="XMLID_468_"/></g><g id="XMLID_1895_"><path class="st1" d="M92.7,247.9c-0.2,0-0.5-0.1-0.7-0.3c-3.8-3.4-8.1-6.2-12.6-8.5c-0.5-0.2-0.7-0.8-0.4-1.3      c0.2-0.5,0.8-0.7,1.3-0.4c4.7,2.4,9.1,5.3,13,8.8c0.4,0.4,0.5,1,0.1,1.4C93.2,247.8,92.9,247.9,92.7,247.9z" id="XMLID_467_"/></g><g id="XMLID_1894_"><path class="st1" d="M93.1,235.4c-0.2,0-0.3,0-0.5-0.1l-13.3-7.1c-0.5-0.3-0.7-0.9-0.4-1.4      c0.3-0.5,0.9-0.7,1.4-0.4l13.3,7.1c0.5,0.3,0.7,0.9,0.4,1.4C93.8,235.2,93.5,235.4,93.1,235.4z" id="XMLID_466_"/></g><g id="XMLID_1893_"><path class="st1" d="M90.8,224.2c-0.2,0-0.4,0-0.5-0.1c-3.6-2.2-7-4.8-10-7.8c-0.4-0.4-0.4-1,0-1.4      c0.4-0.4,1-0.4,1.4,0c2.9,2.9,6.1,5.4,9.6,7.5c0.5,0.3,0.6,0.9,0.3,1.4C91.5,224,91.2,224.2,90.8,224.2z" id="XMLID_465_"/></g><g id="XMLID_1892_"><path class="st1" d="M90.2,214.9c-0.2,0-0.5-0.1-0.6-0.2l-10.4-8.8c-0.4-0.4-0.5-1-0.1-1.4      c0.4-0.4,1-0.5,1.4-0.1l10.4,8.8c0.4,0.4,0.5,1,0.1,1.4C90.8,214.8,90.5,214.9,90.2,214.9z" id="XMLID_464_"/></g><g id="XMLID_1891_"><path class="st1" d="M92.6,207.3c-0.2,0-0.3,0-0.4-0.1c-5.3-2.7-10.3-6.1-14.7-10.1c-0.4-0.4-0.4-1-0.1-1.4      c0.4-0.4,1-0.4,1.4-0.1c4.3,3.9,9.1,7.2,14.2,9.8c0.5,0.2,0.7,0.8,0.4,1.3C93.3,207.1,93,207.3,92.6,207.3z" id="XMLID_463_"/></g><g id="XMLID_1890_"><path class="st1" d="M93.8,194c-0.1,0-0.3,0-0.4-0.1c-4.6-2.1-9.1-4.5-13.4-7.2c-0.5-0.3-0.6-0.9-0.3-1.4      c0.3-0.5,0.9-0.6,1.4-0.3c4.2,2.6,8.6,5,13.2,7c0.5,0.2,0.7,0.8,0.5,1.3C94.5,193.8,94.1,194,93.8,194z" id="XMLID_462_"/></g><g id="XMLID_1889_"><path class="st1" d="M97.8,187.5c-0.1,0-0.3,0-0.4-0.1l-9.9-4.6c-0.5-0.2-0.7-0.8-0.5-1.3      c0.2-0.5,0.8-0.7,1.3-0.5l9.9,4.6c0.5,0.2,0.7,0.8,0.5,1.3C98.6,187.3,98.2,187.5,97.8,187.5z" id="XMLID_461_"/></g><g id="XMLID_1888_"><path class="st1" d="M93.7,70.8c-0.2,0-0.4,0-0.5-0.2c-4.2-2.6-8.1-5.7-11.6-9.1c-0.4-0.4-0.4-1,0-1.4      c0.4-0.4,1-0.4,1.4,0c3.4,3.3,7.2,6.3,11.3,8.9c0.5,0.3,0.6,0.9,0.3,1.4C94.3,70.6,94,70.8,93.7,70.8z" id="XMLID_460_"/></g><g id="XMLID_1887_"><path class="st1" d="M93.7,57.9c-0.2,0-0.4-0.1-0.6-0.2c-4.9-4-9.6-8.4-13.9-13c-0.4-0.4-0.4-1,0-1.4      c0.4-0.4,1-0.4,1.4,0c4.3,4.6,8.9,8.9,13.7,12.8c0.4,0.3,0.5,1,0.1,1.4C94.3,57.8,94,57.9,93.7,57.9z" id="XMLID_459_"/></g><g id="XMLID_1886_"><path class="st1" d="M90.7,41.8c-0.2,0-0.4-0.1-0.6-0.2l-12-8.5c-0.5-0.3-0.6-0.9-0.2-1.4      c0.3-0.5,0.9-0.6,1.4-0.2l12,8.5c0.5,0.3,0.6,0.9,0.2,1.4C91.3,41.6,91,41.8,90.7,41.8z" id="XMLID_458_"/></g><g id="XMLID_1885_"><path class="st1" d="M92.6,28.1c-0.2,0-0.3,0-0.5-0.1c-4.7-2.8-9.3-5.9-13.5-9.4c-0.4-0.3-0.5-1-0.1-1.4      c0.3-0.4,1-0.5,1.4-0.1c4.2,3.4,8.6,6.5,13.2,9.2c0.5,0.3,0.6,0.9,0.4,1.4C93.3,28,93,28.1,92.6,28.1z" id="XMLID_457_"/></g><g id="XMLID_1884_"><path class="st1" d="M89.7,15.4c-0.2,0-0.4-0.1-0.6-0.2l-6.4-5.2c-0.4-0.3-0.5-1-0.1-1.4c0.3-0.4,1-0.5,1.4-0.1      l6.4,5.2c0.4,0.3,0.5,1,0.1,1.4C90.3,15.2,90,15.4,89.7,15.4z" id="XMLID_456_"/></g><g id="XMLID_1883_"><path class="st1" d="M325.9,34.6c-0.5,0-0.9-0.4-1-0.9c-0.1-0.5,0.3-1,0.9-1.1C346.9,29.9,368.2,26,389,21      c0.5-0.1,1.1,0.2,1.2,0.7c0.1,0.5-0.2,1.1-0.7,1.2c-20.9,5-42.2,8.9-63.5,11.6C325.9,34.6,325.9,34.6,325.9,34.6z" id="XMLID_455_"/></g><g id="XMLID_1882_"><path class="st1" d="M346.8,45.7c-0.4,0-0.8-0.3-1-0.7c-0.1-0.5,0.2-1.1,0.7-1.2l26.7-7.2      c0.5-0.1,1.1,0.2,1.2,0.7c0.1,0.5-0.2,1.1-0.7,1.2l-26.7,7.2C347,45.7,346.9,45.7,346.8,45.7z" id="XMLID_454_"/></g><g id="XMLID_1881_"><path class="st1" d="M368.3,49.1c-0.5,0-0.9-0.3-1-0.8c-0.1-0.5,0.2-1.1,0.7-1.2l7-1.7c0.5-0.1,1.1,0.2,1.2,0.7      c0.1,0.5-0.2,1.1-0.7,1.2l-7,1.7C368.5,49.1,368.4,49.1,368.3,49.1z" id="XMLID_453_"/></g><g id="XMLID_1880_"><path class="st1" d="M202,103c-0.5,0-0.9-0.3-1-0.8c-0.1-0.5,0.2-1.1,0.8-1.2c7.2-1.6,14.5-3.7,21.6-5.7      c13.4-3.8,27.2-7.8,41.4-8.9c0.5-0.1,1,0.4,1.1,0.9s-0.4,1-0.9,1.1c-13.9,1.1-27.7,5-41,8.8c-7.1,2-14.4,4.1-21.7,5.8      C202.2,103,202.1,103,202,103z" id="XMLID_452_"/></g><g id="XMLID_1879_"><path class="st1" d="M205.5,121.2c-0.4,0-0.8-0.2-0.9-0.6c-0.2-0.5,0-1.1,0.5-1.3c23-9.7,46.9-17.6,71-23.5      c0.5-0.1,1.1,0.2,1.2,0.7c0.1,0.5-0.2,1.1-0.7,1.2c-24.1,5.9-47.9,13.8-70.7,23.4C205.8,121.2,205.6,121.2,205.5,121.2z" id="XMLID_451_"/></g><g id="XMLID_1878_"><path class="st1" d="M220.6,133.5c-0.4,0-0.8-0.2-0.9-0.6c-0.2-0.5,0.1-1.1,0.6-1.3c17.8-7,36.2-13.2,54.7-18.3      c0.5-0.1,1.1,0.2,1.2,0.7c0.1,0.5-0.2,1.1-0.7,1.2c-18.4,5.1-36.7,11.3-54.5,18.3C220.9,133.5,220.7,133.5,220.6,133.5z" id="XMLID_450_"/></g><g id="XMLID_1877_"><path class="st1" d="M244.5,139.9c-0.4,0-0.8-0.3-0.9-0.7c-0.2-0.5,0.1-1.1,0.6-1.3l35.9-12      c0.5-0.2,1.1,0.1,1.3,0.6c0.2,0.5-0.1,1.1-0.6,1.3l-35.9,12C244.7,139.9,244.6,139.9,244.5,139.9z" id="XMLID_449_"/></g><g id="XMLID_1876_"><path class="st1" d="M259.5,149.1c-0.5,0-0.9-0.4-1-0.9c-0.1-0.5,0.3-1,0.9-1.1c8.9-0.9,17.6-3.9,25.2-8.5      c0.5-0.3,1.1-0.1,1.4,0.3c0.3,0.5,0.1,1.1-0.3,1.4c-7.9,4.8-16.9,7.8-26,8.8C259.6,149.1,259.6,149.1,259.5,149.1z" id="XMLID_448_"/></g><g id="XMLID_1875_"><path class="st1" d="M228.4,139.4c-0.4,0-0.7-0.2-0.9-0.5l-22.4-41.5c-0.3-0.5-0.1-1.1,0.4-1.4      c0.5-0.3,1.1-0.1,1.4,0.4l22.4,41.5c0.3,0.5,0.1,1.1-0.4,1.4C228.7,139.3,228.6,139.4,228.4,139.4z" id="XMLID_447_"/></g><g id="XMLID_1874_"><path class="st1" d="M241.4,136.4c-0.4,0-0.7-0.2-0.9-0.5l-20.8-39c-0.3-0.5-0.1-1.1,0.4-1.4      c0.5-0.3,1.1-0.1,1.4,0.4l20.8,39c0.3,0.5,0.1,1.1-0.4,1.4C241.7,136.3,241.6,136.4,241.4,136.4z" id="XMLID_446_"/></g><g id="XMLID_1873_"><path class="st1" d="M259.6,139.8c-0.4,0-0.8-0.2-0.9-0.6c-6.4-15.8-14.3-31.2-23.3-45.7      c-0.3-0.5-0.1-1.1,0.3-1.4c0.5-0.3,1.1-0.1,1.4,0.3c9.1,14.6,17,30.1,23.5,46c0.2,0.5,0,1.1-0.6,1.3      C259.9,139.7,259.7,139.8,259.6,139.8z" id="XMLID_445_"/></g><g id="XMLID_1872_"><path class="st1" d="M279.4,136.7c-0.8,0-1.6-0.6-1.9-1.2c-9.5-16.1-18.3-32.9-26.3-49.8      c-0.2-0.5,0-1.1,0.5-1.3c0.5-0.2,1.1,0,1.3,0.5c8,16.9,16.8,33.6,26.2,49.7c0,0,0,0,0,0.1c0.2-0.1,0.5-0.2,0.7-0.1      c0.5,0.1,0.9,0.7,0.7,1.2c-0.1,0.6-0.6,0.9-1.1,1C279.5,136.7,279.5,136.7,279.4,136.7z" id="XMLID_444_"/></g><g id="XMLID_1871_"><path class="st1" d="M164,333.2c-0.3,0-0.5-0.1-0.7-0.3c-0.4-0.4-0.4-1,0-1.4c38.4-37.1,82.8-66.5,131.9-87.3      c0.5-0.2,1.1,0,1.3,0.5c0.2,0.5,0,1.1-0.5,1.3c-48.9,20.7-93.1,50-131.3,86.9C164.5,333.1,164.2,333.2,164,333.2z" id="XMLID_443_"/></g><g id="XMLID_1870_"><path class="st1" d="M184.2,328.5c-0.3,0-0.6-0.1-0.7-0.3c-0.4-0.4-0.3-1,0.1-1.4      c32.2-28.5,68.1-52.4,106.9-71.1c0.5-0.2,1.1,0,1.3,0.5c0.2,0.5,0,1.1-0.5,1.3c-38.6,18.6-74.4,42.4-106.4,70.8      C184.6,328.4,184.4,328.5,184.2,328.5z" id="XMLID_442_"/></g><g id="XMLID_1869_"><path class="st1" d="M221.3,327.8c-0.3,0-0.6-0.1-0.8-0.4c-0.3-0.4-0.3-1.1,0.2-1.4      c22.4-17.9,45.9-35.1,69.9-50.9c0.5-0.3,1.1-0.2,1.4,0.3c0.3,0.5,0.2,1.1-0.3,1.4c-23.9,15.8-47.4,32.9-69.7,50.8      C221.7,327.7,221.5,327.8,221.3,327.8z" id="XMLID_441_"/></g><g id="XMLID_1868_"><path class="st1" d="M234.5,330.5c-0.3,0-0.5-0.1-0.7-0.3c-0.4-0.4-0.3-1,0.1-1.4c22.8-21,48.5-38.5,76.5-51.8      c0.5-0.2,1.1,0,1.3,0.5c0.2,0.5,0,1.1-0.5,1.3c-27.8,13.3-53.4,30.6-76,51.5C235,330.4,234.7,330.5,234.5,330.5z" id="XMLID_440_"/></g><g id="XMLID_1867_"><path class="st1" d="M250.9,347.5c-0.3,0-0.6-0.1-0.8-0.4c-0.3-0.5-0.2-1.1,0.2-1.4      c19.1-13.3,38.9-26.3,58.7-38.6c0.5-0.3,1.1-0.1,1.4,0.3c0.3,0.5,0.1,1.1-0.3,1.4c-19.8,12.3-39.5,25.2-58.6,38.6      C251.3,347.4,251.1,347.5,250.9,347.5z" id="XMLID_439_"/></g><g id="XMLID_1866_"><path class="st1" d="M285.2,341.7c-0.3,0-0.6-0.1-0.8-0.4c-0.3-0.4-0.3-1.1,0.2-1.4c13.8-11,28.9-20.2,45-27.4      c0.5-0.2,1.1,0,1.3,0.5c0.2,0.5,0,1.1-0.5,1.3c-15.9,7.1-30.9,16.3-44.6,27.1C285.6,341.6,285.4,341.7,285.2,341.7z" id="XMLID_438_"/></g><g id="XMLID_1865_"><path class="st1" d="M211.8,358c-0.1,0-0.3,0-0.4-0.1c-4.4-2.1-7.7-5.8-10.7-9.6      c-11.8-15.1-20.2-32.9-24.3-51.6c-0.1-0.5,0.2-1.1,0.8-1.2c0.5-0.1,1.1,0.2,1.2,0.8c4,18.4,12.3,35.9,23.9,50.8      c2.8,3.5,5.9,7.1,10,9c0.5,0.2,0.7,0.8,0.5,1.3C212.5,357.8,212.2,358,211.8,358z" id="XMLID_437_"/></g><g id="XMLID_1864_"><path class="st1" d="M229.3,341.7l-38.7-60.4c-0.3-0.5-0.2-1.1,0.3-1.4c0.5-0.3,1.1-0.2,1.4,0.3l36.2,56.5      c0.5-0.1,1,0.1,1.2,0.6l1.4,3.4L229.3,341.7z" id="XMLID_436_"/></g><g id="XMLID_1863_"><path class="st1" d="M255.3,335.9c-0.3,0-0.6-0.1-0.8-0.4c-15.6-22.3-30.6-45.5-44.5-68.9      c-0.3-0.5-0.1-1.1,0.3-1.4c0.5-0.3,1.1-0.1,1.4,0.3c13.9,23.3,28.9,46.5,44.5,68.7c0.3,0.5,0.2,1.1-0.2,1.4      C255.7,335.8,255.5,335.9,255.3,335.9z" id="XMLID_435_"/></g><g id="XMLID_1862_"><path class="st1" d="M293.3,354.2c-0.3,0-0.6-0.2-0.8-0.4c-22.8-33.3-44.3-68.2-63.8-103.5      c-0.3-0.5-0.1-1.1,0.4-1.4c0.5-0.3,1.1-0.1,1.4,0.4c19.5,35.3,41,70.1,63.7,103.4c0.3,0.5,0.2,1.1-0.3,1.4      C293.7,354.1,293.5,354.2,293.3,354.2z" id="XMLID_434_"/></g><g id="XMLID_1861_"><path class="st1" d="M304.7,327.2c-0.3,0-0.6-0.2-0.8-0.4l-51.1-76.3c-0.3-0.5-0.2-1.1,0.3-1.4      c0.5-0.3,1.1-0.2,1.4,0.3l51.1,76.3c0.3,0.5,0.2,1.1-0.3,1.4C305.1,327.2,304.9,327.2,304.7,327.2z" id="XMLID_433_"/></g><g id="XMLID_1860_"><path class="st1" d="M333.8,319c-0.3,0-0.6-0.1-0.8-0.4l-47.6-66.4c-0.3-0.4-0.2-1.1,0.2-1.4      c0.4-0.3,1.1-0.2,1.4,0.2l47.6,66.4c0.3,0.4,0.2,1.1-0.2,1.4C334.2,319,334,319,333.8,319z" id="XMLID_432_"/></g><g id="XMLID_1859_"><path class="st1" d="M248,441.7c-0.4,0-0.8-0.2-0.9-0.6c-0.2-0.5,0-1.1,0.5-1.3l25.5-10.8      c0.5-0.2,1.1,0,1.3,0.5s0,1.1-0.5,1.3l-25.5,10.8C248.2,441.7,248.1,441.7,248,441.7z" id="XMLID_431_"/></g><g id="XMLID_1858_"><path class="st1" d="M277,449.8c-0.5,0-0.9-0.3-1-0.8c-0.1-0.5,0.3-1.1,0.8-1.2l6.4-1.2      c0.5-0.1,1.1,0.3,1.2,0.8c0.1,0.5-0.3,1.1-0.8,1.2l-6.4,1.2C277.1,449.8,277.1,449.8,277,449.8z" id="XMLID_430_"/></g><g id="XMLID_1857_"><path class="st1" d="M143.8,35.1c-0.3,0-0.6-0.1-0.8-0.4c-0.3-0.4-0.2-1.1,0.2-1.4c4.8-3.5,9.9-6.8,15.1-9.6      c0.5-0.3,1.1-0.1,1.4,0.4s0.1,1.1-0.4,1.4c-5.1,2.8-10.1,6-14.9,9.5C144.3,35.1,144.1,35.1,143.8,35.1z" id="XMLID_429_"/></g><g id="XMLID_1856_"><path class="st1" d="M404.4,190.4c-0.5,0-0.9-0.3-1-0.8l-2.9-12.2c-0.1-0.5,0.2-1.1,0.7-1.2      c0.5-0.1,1.1,0.2,1.2,0.7l2.9,12.2c0.1,0.5-0.2,1.1-0.7,1.2C404.5,190.4,404.4,190.4,404.4,190.4z" id="XMLID_428_"/></g><g id="XMLID_1855_"><path class="st1" d="M391,199.7c-0.1,0-0.2,0-0.3,0c-0.5-0.2-0.8-0.7-0.7-1.2l2.3-8.1c0.2-0.5,0.7-0.8,1.2-0.7      c0.5,0.2,0.8,0.7,0.7,1.2L392,199C391.8,199.4,391.4,199.7,391,199.7z" id="XMLID_427_"/></g></g></g><g id="XMLID_2035_"><path class="st0" d="M44.4,180.5c-1.6,0-3.2-0.6-4.3-1.7c-1.2-1.2-1.9-2.7-1.9-4.4L36.3,81c0-1.5,0.5-2.9,1.5-4    c1-1.1,2.4-1.7,3.9-1.7l183.9-3.8c3.8-0.1,7.7-0.1,11.4-0.1c7.4,0,15,0,22.3-0.6c19.2-1.7,36.5,14.5,51.8,28.8    c3.9,3.7,7.6,7.1,11.2,10.2c3.6,3.1,5.7,7.5,5.8,12.2c0.1,4.7-1.8,9.3-5.3,12.5c-4,3.7-8,7.4-11.8,11.1    c-7.8,7.4-15.9,15.1-24.2,22.1c-2.8,2.4-5.8,4.3-9.1,5.8c-10.7,4.9-21.9,4.2-32.8,3.5c-4.4-0.3-8.5-0.5-12.6-0.4l-187.8,3.8    C44.5,180.5,44.5,180.5,44.4,180.5z M44.3,83.3l1.8,89.2l186.1-3.8c4.5-0.1,8.9,0.2,13.3,0.5c10.3,0.6,20.1,1.3,29-2.8h0    c2.6-1.2,5-2.7,7.2-4.6c8.1-6.9,16.1-14.5,23.8-21.8c3.9-3.7,7.9-7.5,11.9-11.2c1.8-1.6,2.8-4,2.7-6.4c-0.1-2.5-1.1-4.7-3-6.3    c-3.8-3.2-7.5-6.7-11.5-10.4c-14.1-13.2-30-28.1-45.7-26.7c-7.7,0.7-15.5,0.7-23,0.7c-3.7,0-7.5,0-11.2,0.1L44.3,83.3z" id="XMLID_583_"/></g><g id="XMLID_2034_"><path class="st0" d="M40.2,82.3c-0.9,0-1.7-0.3-2.4-0.8c-1.7-1.3-2.1-3.9-0.7-5.6L70,33.1    c1.3-1.7,3.9-2.1,5.6-0.7c1.7,1.3,2.1,3.9,0.7,5.6L43.4,80.7C42.6,81.8,41.4,82.3,40.2,82.3z" id="XMLID_582_"/></g><g id="XMLID_1997_"><path class="st0" d="M387.9,476.6H71V178.3c0-2.2,1.8-4,4-4s4,1.8,4,4v290.3h308.9c2.2,0,4,1.8,4,4    S390.1,476.6,387.9,476.6z" id="XMLID_569_"/></g><g id="XMLID_1996_"><path class="st0" d="M430.3,267.6c-2.2,0-4-1.8-4-4V10H79v64.7c0,2.2-1.8,4-4,4s-4-1.8-4-4V2h363.3v261.6    C434.3,265.8,432.5,267.6,430.3,267.6z" id="XMLID_568_"/></g><g id="XMLID_1979_"><path class="st0" d="M409.8,510c-1.5,0-2.9-0.8-3.6-2.2c0,0,0,0,0,0c-14.7-29.2-41.9-66.2-58.2-88.4    c-2.6-3.6-5-7.3-3.4-10.9c1.8-3.8,6-4,12.9-4.4l0.1,0c4.9-0.3,11.1-0.2,17.1-0.2c3.3,0,6.5,0.1,9.4,0c0.5-21.5,0.3-43,0.2-63.9    c-0.1-22.1-0.2-45,0.3-67.9c0-1.6,0.1-4.6,2.3-6.7c2-2,4.6-2.2,6-2.3c12.2-0.8,24.6-1.2,36.9-1.3c0,0,0.1,0,0.1,0    c6.3,0,11.5,5.3,11.6,11.8c0.3,12.3,0.1,25.1,0,37.5c-0.2,18-0.4,36.5,0.6,54.6l1.2,37.3l10.5,0.3c0.7,0,2-0.1,3.4-0.2    c6.6-0.5,14.7-1.1,17.6,3.9c2.7,4.6-1.1,9.7-3.4,12.7c-0.4,0.5-0.7,0.9-1,1.3l-43.4,65.7c-0.3,0.5-1,1.4-2.4,3.3    c-2.5,3.3-9.8,12.9-11,15.8c0,1.5-0.8,2.9-2.2,3.6C411,509.9,410.4,510,409.8,510z M352.9,412.5c0.3,0.6,0.8,1.3,1.5,2.2    c15.2,20.6,39.8,54.1,55.3,82.6c2-2.9,4.8-6.8,8.7-11.9c0.9-1.2,1.9-2.5,2.1-2.9l43.4-65.7c0.3-0.5,0.7-1.1,1.2-1.7    c0.6-0.9,2-2.7,2.5-3.8c-2.2-0.6-7.6-0.2-9.7,0c-1.7,0.1-3.2,0.2-4.3,0.2l-14.2-0.5c-2.1-0.1-3.8-1.8-3.9-3.9l-1.3-41    c-1-18.3-0.8-37-0.6-55.1c0.1-12.3,0.3-25.1,0-37.2c-0.1-2.2-1.7-4-3.6-4c-12.1,0.1-24.3,0.5-36.4,1.3c-0.1,0-0.5,0-0.7,0.1    c0,0.3-0.1,0.7-0.1,1.2c-0.5,22.8-0.4,45.6-0.3,67.7c0.1,22.1,0.2,45-0.3,67.9c-0.1,2.1-1.7,3.8-3.9,3.9    c-3.9,0.1-8.6,0.1-13.5,0.1c-5.9,0-12-0.1-16.6,0.2l-0.1,0C356.2,412.2,354.3,412.3,352.9,412.5z" id="XMLID_549_"/></g></g></svg>