<svg id="Capa_1" enable-background="new 0 0 512 512" height="512" viewBox="0 0 512 512" width="512" xmlns="http://www.w3.org/2000/svg"><g><path d="m416 277.834v-143.249l88.5 65.748z" fill="#e19974"/><path d="m7.5 200.333 88.5 77.405v-147.068z" fill="#e19974"/><path d="m333.667 350.333h-154.667l-83-72.595v-239.405c0-14.728 11.939-26.667 26.667-26.667h266.667c14.728 0 26.667 11.939 26.667 26.667v239.501z" fill="#f5f8f9"/><path d="m183.348 292.915-7.098-6.207c-6.514-5.697-10.25-13.929-10.25-22.582v-225.793c0-14.73 11.94-26.67 26.67-26.67h-70c-14.729 0-26.67 11.941-26.67 26.67v239.41l83 72.59h70 84.667l56.782-50h-187.351c-7.265 0-14.282-2.636-19.75-7.418z" fill="#e8edf2"/><path d="m495.15 492.083c-5.38 5.11-12.65 8.25-20.65 8.25h-437c-8 0-15.27-3.14-20.65-8.25 0 0 135.851-118.759 162.15-141.75 0 0 116.667.333 154.667 0z" fill="#fedba6"/><path d="m221.727 195.92h-52.6c-20.75 0-37.571-16.821-37.571-37.571 0-20.75 16.821-37.571 37.571-37.571h52.6z" fill="#f07281"/><path d="m311.898 248.519c-8.3 0-15.029-6.728-15.029-15.029v-150.284c0-8.3 6.728-15.028 15.029-15.028 8.3 0 15.029 6.728 15.029 15.028v150.285c-.001 8.3-6.729 15.028-15.029 15.028z" fill="#aa9ea9"/><path d="m179 350.333-162.15 141.75c-5.76-5.46-9.35-13.19-9.35-21.75v-270z" fill="#fedba6"/><path d="m87.5 270.303v160.02l-70.65 61.76c-5.76-5.46-9.35-13.19-9.35-21.75v-270z" fill="#fece85"/><path d="m470.37 470.333h-352.87c-16.569 0-30-13.431-30-30v-10.01c-16.937 14.806-33.15 28.978-45.77 40.01h-.01c-.076.067-.145.135-.22.202-14.842 12.975-24.65 21.548-24.65 21.548 5.38 5.11 12.65 8.25 20.65 8.25h50 387c8 0 15.27-3.14 20.65-8.25z" fill="#fece85"/><path d="m504.5 200.333v270c0 8.56-3.59 16.29-9.35 21.75l-161.483-141.75z" fill="#fedba6"/><g><path d="m504.5 324.145c4.143 0 7.5-3.358 7.5-7.5v-116.31c0-2.373-1.123-4.605-3.027-6.021l-85.473-63.5v-92.479c0-18.841-15.328-34.17-34.17-34.17h-122.41c-4.143 0-7.5 3.358-7.5 7.5s3.357 7.5 7.5 7.5h122.41c10.57 0 19.17 8.6 19.17 19.17v236.314l-77.679 68.208c-30.936.202-130.961.02-148.997-.016l-78.323-68.5v-236.006c0-10.57 8.6-19.17 19.17-19.17h111.559c4.143 0 7.5-3.358 7.5-7.5s-3.357-7.5-7.5-7.5h-111.56c-18.842 0-34.17 15.329-34.17 34.17v88.698l-85.639 67.408c-1.806 1.423-2.861 3.595-2.861 5.894v270c0 10.239 4.261 20.151 11.685 27.188 7.003 6.649 16.171 10.312 25.815 10.312h437c9.645 0 18.813-3.662 25.811-10.307 7.429-7.042 11.689-16.954 11.689-27.193v-121c0-4.142-3.357-7.5-7.5-7.5s-7.5 3.358-7.5 7.5v121c0 3.9-.976 7.628-2.815 10.923l-149.147-130.924 151.962-133.433v99.744c0 4.142 3.357 7.5 7.5 7.5zm-81-174.645 69.079 51.321-69.079 60.657zm-335 111.721-69.261-60.582 69.261-54.516zm-51 231.614c-2.879 0-5.686-.546-8.299-1.585l86.946-76.008c3.118-2.726 3.437-7.464.71-10.583-2.726-3.119-7.464-3.436-10.583-.71l-88.45 77.323c-1.845-3.298-2.824-7.031-2.824-10.937v-253.476l76.062 66.531s.001.001.001.001l76.542 66.942-28.641 25.035c-1.63 1.424-2.564 3.493-2.564 5.657 0 4.142 3.357 7.495 7.5 7.495 1.953 0 3.731-.748 5.065-1.972l32.844-28.708c18.126.035 117.976.218 149.06.015l151.953 133.386c-2.619 1.045-5.435 1.593-8.322 1.593h-437z"/><path d="m186.159 283.573c14.079 0 25.534-11.455 25.534-25.534v-54.618h8.263l69.958 34.979c2.247 10.069 11.247 17.621 21.984 17.621 12.422 0 22.528-10.106 22.528-22.528v-150.285c0-12.422-10.106-22.529-22.528-22.529-10.736 0-19.737 7.552-21.984 17.621l-69.958 34.979h-50.829c-24.853 0-45.071 20.219-45.071 45.071 0 21.946 15.769 40.268 36.569 44.256v55.433c0 14.08 11.455 25.534 25.534 25.534zm10.534-25.534c0 5.809-4.726 10.534-10.534 10.534s-10.534-4.726-10.534-10.534v-54.618h21.068zm115.204-182.36c4.151 0 7.528 3.377 7.528 7.529v150.285c0 4.151-3.377 7.528-7.528 7.528s-7.528-3.377-7.528-7.528v-150.285c0-4.152 3.377-7.529 7.528-7.529zm-22.528 145.678-60.143-30.071v-65.872l60.143-30.071zm-150.313-63.007c0-16.582 13.49-30.071 30.071-30.071h45.1v60.143h-10.033-35.066c-16.582-.001-30.072-13.49-30.072-30.072z"/><path d="m385.748 81.995c-2.93-2.929-7.678-2.929-10.607 0l-28.053 28.053c-2.929 2.929-2.929 7.678 0 10.606 1.465 1.464 3.385 2.197 5.304 2.197s3.839-.732 5.304-2.197l28.053-28.053c2.928-2.928 2.928-7.677-.001-10.606z"/><path d="m347.088 207.298 28.053 28.053c1.465 1.465 3.384 2.197 5.304 2.197 1.919 0 3.839-.732 5.304-2.197 2.929-2.929 2.929-7.678 0-10.606l-28.053-28.053c-2.929-2.929-7.677-2.929-10.607 0s-2.93 7.678-.001 10.606z"/><path d="m380.444 150.85h-28.053c-4.143 0-7.5 3.358-7.5 7.5s3.357 7.5 7.5 7.5h28.053c4.143 0 7.5-3.358 7.5-7.5s-3.357-7.5-7.5-7.5z"/></g></g></svg>