<?xml version="1.0" standalone="no"?>
<!DOCTYPE svg PUBLIC "-//W3C//DTD SVG 20010904//EN"
 "http://www.w3.org/TR/2001/REC-SVG-20010904/DTD/svg10.dtd">
<svg version="1.0" xmlns="http://www.w3.org/2000/svg"
 width="700.000000pt" height="700.000000pt" viewBox="0 0 700.000000 700.000000"
 preserveAspectRatio="xMidYMid meet">
<metadata>
Created by potrace 1.11, written by Peter Selinger 2001-2013
</metadata>
<g transform="translate(0.000000,700.000000) scale(0.100000,-0.100000)"
fill="#000000" stroke="none">
<path d="M3327 6268 c-67 -14 -120 -45 -217 -125 -52 -44 -286 -236 -520 -427
-234 -192 -447 -367 -474 -390 -27 -22 -58 -48 -70 -56 -12 -8 -32 -24 -46
-37 -13 -12 -25 -21 -27 -20 -1 2 -3 88 -3 192 -2 207 -8 233 -58 259 -52 27
-133 0 -152 -50 -6 -14 -10 -153 -10 -309 l0 -284 -57 -46 c-32 -25 -76 -61
-97 -78 -21 -18 -45 -36 -52 -40 -12 -7 -14 89 -14 583 0 636 0 633 -52 661
-28 15 -91 14 -117 -3 -48 -30 -48 -25 -48 -748 l-1 -679 -28 -24 c-16 -13
-128 -106 -249 -206 -121 -101 -234 -195 -251 -209 -17 -15 -51 -43 -75 -63
-24 -20 -91 -76 -149 -124 -58 -48 -116 -96 -130 -107 -120 -99 -155 -136
-179 -188 -26 -54 -26 -58 -26 -295 l0 -240 29 -42 c49 -73 165 -113 248 -87
25 7 88 49 127 83 13 12 25 21 25 21 1 0 2 -520 2 -1155 0 -808 -3 -1155 -10
-1156 -6 -1 -81 -3 -166 -4 -85 -1 -166 -3 -178 -4 -36 -2 -82 -56 -82 -96 0
-48 15 -81 46 -101 24 -17 202 -18 3107 -19 1695 0 3096 3 3112 7 66 17 99
109 59 166 -30 43 -58 48 -241 47 -109 0 -174 3 -176 10 -3 9 -1 2295 2 2304
0 2 20 -13 42 -34 132 -119 295 -93 369 61 19 39 22 62 23 221 1 309 -8 332
-202 491 -58 48 -115 94 -126 104 -11 9 -78 64 -150 123 -71 59 -150 124 -175
145 -25 21 -75 62 -111 92 -62 49 -263 215 -489 401 -52 44 -104 86 -115 95
-31 26 -127 105 -150 124 -111 91 -279 230 -314 258 -24 19 -48 40 -55 45 -6
6 -36 30 -66 55 -30 25 -64 52 -75 62 -11 9 -90 73 -175 143 -85 70 -175 144
-199 164 -25 20 -85 70 -135 111 -302 251 -443 364 -480 385 -62 35 -150 48
-219 33z"/>
</g>
</svg>
